<svg width="24" height="14" viewBox="0 0 24 14" fill="none" xmlns="http://www.w3.org/2000/svg">
<path d="M23.1755 0.997493C23.3389 0.454993 23.1755 0.0571594 22.4032 0.0571594H19.8447C19.1937 0.0571594 18.8962 0.401327 18.7329 0.779327C18.7329 0.779327 17.432 3.95149 15.5887 6.00833C14.9937 6.60683 14.7219 6.79583 14.3975 6.79583C14.2354 6.79583 13.9997 6.60683 13.9997 6.06433V0.997493C13.9997 0.346493 13.8119 0.0571594 13.2694 0.0571594H9.24904C8.84304 0.0571594 8.59804 0.35816 8.59804 0.64516C8.59804 1.26116 9.51971 1.40349 9.61421 3.13949V6.90549C9.61421 7.73033 9.46604 7.88083 9.13937 7.88083C8.27254 7.88083 6.16321 4.69699 4.91137 1.05233C4.66754 0.34416 4.42137 0.0583266 3.76804 0.0583266H1.21071C0.479207 0.0583266 0.333374 0.402493 0.333374 0.780493C0.333374 1.45949 1.20021 4.81949 4.37121 9.26333C6.48521 12.2978 9.46137 13.9428 12.1727 13.9428C13.7979 13.9428 13.9985 13.5777 13.9985 12.9477V10.654C13.9985 9.92366 14.1537 9.77666 14.6682 9.77666C15.0462 9.77666 15.6972 9.96799 17.215 11.4298C18.9487 13.1635 19.2357 13.9417 20.2099 13.9417H22.7672C23.4975 13.9417 23.8627 13.5765 23.6527 12.8555C23.4229 12.138 22.5945 11.0938 21.4955 9.85833C20.8982 9.15366 20.0057 8.39533 19.7339 8.01616C19.3547 7.52733 19.4644 7.31149 19.7339 6.87749C19.735 6.87866 22.8512 2.48966 23.1755 0.997493Z" fill="white"/>
</svg>
