<svg width="18" height="20" viewBox="0 0 18 20" fill="none" xmlns="http://www.w3.org/2000/svg">
<path d="M17 7.50737C16.3149 6.33716 15.2049 5.4762 13.9011 5.10367C12.5972 4.73114 11.1999 4.87574 10 5.50737V0.507375H8.00002V5.50737C6.80009 4.87574 5.4028 4.73114 4.09896 5.10367C2.79511 5.4762 1.68513 6.33716 1.00002 7.50737C-0.999983 10.5074 4.00002 19.5074 6.00002 19.5074C8.00002 19.5074 8.00002 18.5074 9.00002 18.5074C10 18.5074 10 19.5074 12 19.5074C14 19.5074 19 10.5074 17 7.50737ZM15.25 10.8874C14.63 13.3574 13.41 15.6274 11.7 17.5074C11.5 17.5074 11.27 17.4074 11.1 17.2574C10.5056 16.7768 9.76439 16.5146 9.00002 16.5146C8.23565 16.5146 7.4944 16.7768 6.90002 17.2574C6.73002 17.4074 6.50002 17.5074 6.30002 17.5074C4.58526 15.6336 3.36508 13.3617 2.75002 10.8974C2.50002 10.1674 2.45002 9.37737 2.66002 8.62737C2.94464 8.1199 3.35581 7.69477 3.8535 7.39335C4.35118 7.09194 4.91843 6.92451 5.50002 6.90737C6.06002 6.91737 6.61002 7.04737 7.11002 7.29737L8.00002 7.74737H10L10.89 7.29737C11.39 7.04737 11.94 6.91737 12.5 6.90737C13.68 6.93737 14.76 7.58737 15.34 8.61737C15.55 9.36737 15.5 10.1574 15.25 10.8874ZM8.00002 2.50737C2.38002 5.57737 1.11002 1.28737 1.11002 1.28737C1.11002 1.28737 3.77002 -2.30263 8.00002 2.50737Z" fill="black"/>
</svg>
