<svg width="25" height="24" viewBox="0 0 25 24" fill="none" xmlns="http://www.w3.org/2000/svg">
<path d="M17.7275 0.578125C15.6171 0.578125 13.5916 1.59695 12.2695 3.20695C10.9475 1.59695 8.92195 0.578125 6.81152 0.578125C3.07582 0.578125 0.140625 3.62203 0.140625 7.49609C0.140625 12.2506 4.26445 16.1247 10.5108 22.0112L12.2695 23.659L14.0282 21.9987C20.2746 16.1247 24.3984 12.2506 24.3984 7.49609C24.3984 3.62203 21.4632 0.578125 17.7275 0.578125ZM12.3908 20.1371L12.2695 20.2629L12.1482 20.1371C6.37488 14.7159 2.56641 11.1312 2.56641 7.49609C2.56641 4.98047 4.38574 3.09375 6.81152 3.09375C8.67937 3.09375 10.4987 4.33898 11.1415 6.06219H13.4096C14.0404 4.33898 15.8597 3.09375 17.7275 3.09375C20.1533 3.09375 21.9727 4.98047 21.9727 7.49609C21.9727 11.1312 18.1642 14.7159 12.3908 20.1371Z" fill="#363636"/>
</svg>
