<svg width="10" height="20" viewBox="0 0 10 20" fill="none" xmlns="http://www.w3.org/2000/svg">
<path d="M9.975 9H10V18C10 18.5304 9.78929 19.0391 9.41421 19.4142C9.03914 19.7893 8.53043 20 8 20H2C1.46957 20 0.960859 19.7893 0.585786 19.4142C0.210714 19.0391 0 18.5304 0 18V9H0.0250001C0.112573 8.22262 0.426177 7.48798 0.927 6.887L2.037 5.557C2.33668 5.19706 2.50054 4.74336 2.5 4.275V1C2.5 0.734784 2.60536 0.48043 2.79289 0.292893C2.98043 0.105357 3.23478 0 3.5 0H6.5C6.76522 0 7.01957 0.105357 7.20711 0.292893C7.39464 0.48043 7.5 0.734784 7.5 1V4.276C7.50021 4.7438 7.6644 5.19673 7.964 5.556L9.073 6.887C9.57382 7.48798 9.88743 8.22262 9.975 9ZM7.949 9C7.87854 8.6941 7.73705 8.40908 7.536 8.168L6.427 6.837C5.82793 6.11805 5.49991 5.21182 5.5 4.276V2H4.5V4.276C4.49986 5.21148 4.17185 6.11732 3.573 6.836L2.463 8.168C2.26267 8.40928 2.12188 8.69428 2.052 9H7.95H7.949ZM8 16H2V18H8V16ZM2 11V14H8V11H2Z" fill="black"/>
</svg>
