<svg width="24" height="22" viewBox="0 0 24 22" fill="none" xmlns="http://www.w3.org/2000/svg">
<path d="M14.568 7.11364C13.8484 6.35606 13.0984 5.69697 12.318 5.13636C11.5377 4.57576 10.8067 4.1553 10.1249 3.875C9.44305 3.5947 8.81805 3.46023 8.24987 3.47159C7.68169 3.48295 7.2385 3.65909 6.92032 4C6.84456 4.07576 6.78017 4.16098 6.72714 4.25568C6.67411 4.35038 6.63623 4.42424 6.6135 4.47727C6.59078 4.5303 6.56047 4.625 6.52259 4.76136C6.48472 4.89773 6.4582 4.98485 6.44305 5.02273L2.21578 18.9318L2.47714 19.2045C2.18168 19.4091 1.91843 19.6477 1.68737 19.9205C1.45631 20.1932 1.25365 20.4167 1.07941 20.5909C0.90517 20.7652 0.696837 20.8864 0.454412 20.9545C0.401382 20.9697 0.335094 21.0208 0.255549 21.108C0.176003 21.1951 0.13623 21.2727 0.13623 21.3409C0.13623 21.4773 0.204412 21.5909 0.340776 21.6818C0.47714 21.7727 0.628655 21.8182 0.795321 21.8182C1.00744 21.8182 1.21199 21.733 1.40896 21.5625C1.60593 21.392 1.80479 21.1742 2.00555 20.9091C2.20631 20.6439 2.35214 20.4697 2.44305 20.3864C2.64002 20.2121 2.85972 20.0455 3.10214 19.8864L3.39759 20.1705L16.8294 15.6136C17.1249 15.5227 17.3521 15.3864 17.5112 15.2045C17.8294 14.8636 17.9942 14.392 18.0055 13.7898C18.0169 13.1875 17.89 12.5246 17.6249 11.8011C17.3597 11.0777 16.9639 10.3049 16.4374 9.48295C15.9109 8.66098 15.2877 7.87121 14.568 7.11364ZM13.3408 8.35227C14.4999 9.53409 15.3805 10.6648 15.9828 11.7443C16.5851 12.8239 16.7309 13.5341 16.4203 13.875C16.1097 14.2159 15.4317 14.0909 14.3862 13.5C13.3408 12.9091 12.2423 12.0265 11.0908 10.8523C9.92411 9.67045 9.03964 8.54167 8.43737 7.46591C7.83509 6.39015 7.68926 5.67803 7.99987 5.32955C8.31047 4.98864 8.9904 5.11364 10.0396 5.70455C11.0889 6.29545 12.1893 7.17803 13.3408 8.35227ZM10.8521 13.0568C11.4052 13.5492 11.9544 13.9811 12.4999 14.3523C12.5074 14.3674 12.6968 14.7235 13.068 15.4205L12.1135 15.75C11.659 14.8939 11.2385 13.9962 10.8521 13.0568ZM6.97714 7.85227C7.14381 8.22348 7.37487 8.67424 7.67032 9.20455C7.91275 10.2955 8.29343 11.4773 8.81237 12.75C9.33131 14.0227 9.89759 15.2159 10.5112 16.3295L9.56805 16.6477C8.85593 15.3295 8.23472 13.9489 7.70441 12.5057C7.17411 11.0625 6.84835 9.78788 6.72714 8.68182L6.97714 7.85227ZM5.65896 12.0114C6.18926 13.7083 6.93547 15.4508 7.89759 17.2386L6.96578 17.5682C6.21578 16.1288 5.62487 14.7765 5.19305 13.5114L5.65896 12.0114ZM4.35214 16.1591C4.64759 16.8561 4.96199 17.5189 5.29532 18.1477L4.3635 18.4773C4.25744 18.2727 4.10593 17.9583 3.90896 17.5341L4.35214 16.1591ZM12.7044 0L13.2726 1.71591L11.8067 2.78409H13.6135L14.1703 4.5L14.7271 2.78409H16.5226L15.068 1.71591L15.6362 0.0113636L14.1703 1.06818L12.7044 0ZM9.52259 0L9.21578 1.55682L10.7726 1.86364L11.0794 0.306818L9.52259 0ZM19.7612 4.68182L21.0112 3.375L22.6362 4.17045L21.7953 2.57955L23.0567 1.29545L21.2726 1.60227L20.4317 0L20.1817 1.79545L18.3976 2.10227L20.0226 2.88636L19.7612 4.68182ZM19.3408 7.47727L20.8521 8.47727L20.3749 10.2273L21.784 9.09091L23.284 10.0909L22.659 8.38636L24.068 7.27273L22.2612 7.35227L21.6249 5.65909L21.159 7.39773L19.3408 7.47727ZM18.693 3.26136L15.3067 6.03409L15.7271 6.54545L19.1135 3.77273L18.693 3.26136ZM19.8749 8.625L17.2271 8.38636L17.159 9.04545L19.818 9.28409L19.8749 8.625ZM20.1362 11.8068L19.6476 13.3295L21.159 13.8182L21.659 12.3068L20.1362 11.8068Z" fill="black"/>
</svg>
