<svg width="16" height="20" viewBox="0 0 16 20" fill="none" xmlns="http://www.w3.org/2000/svg">
<path d="M6.99991 15.916V18H4.99991V20H10.9999V18H8.99992V15.916C12.1619 15.514 14.8489 13.256 15.7129 10.123C15.9769 9.171 16.0249 8.093 15.8559 6.917L14.9899 0.858C14.9199 0.366 14.4979 0 13.9999 0H1.99991C1.50191 0 1.07992 0.366 1.00992 0.858L0.144915 6.916C-0.0240852 8.093 0.0239149 9.171 0.287915 10.122C1.15091 13.256 3.83791 15.514 6.99991 15.916ZM13.1329 2L13.7029 6H2.29591L2.86691 2H13.1329Z" fill="black"/>
</svg>
