<svg width="30" height="30" viewBox="0 0 30 30" fill="none" xmlns="http://www.w3.org/2000/svg">
<path d="M10.9086 8.4082L16.1461 13.6457L21.3836 18.8832L12.4127 22.6165L3.44189 26.3499L7.17523 17.379L10.9086 8.4082Z" fill="#F1B31C"/>
<path d="M16.6666 14.5831L10.7049 8.6123L6.82993 17.7248L2.9541 26.8373L16.6666 14.5831Z" fill="#FCEA2B"/>
<path d="M6.34309 18.8687L10.9523 23.4778L8.64768 24.4157L5.39893 21.167L6.34309 18.8687Z" fill="#EA5A47"/>
<path d="M7.22656 23.02L8.64823 24.4159L10.9524 23.478L8.9524 21.4775L7.22656 23.02Z" fill="#D22F27"/>
<path d="M8.66875 13.4014L11.4588 16.1914L16.3338 21.0664L13.7196 22.2593L10.315 18.8543L7.5625 16.1022L8.66875 13.4014Z" fill="#EA5A47"/>
<path d="M11.0571 19.5961L13.7196 22.2586L16.3334 21.0656L13.0675 17.7998L11.0571 19.5961Z" fill="#D22F27"/>
<path d="M12.6229 6.84563C13.0831 6.84563 13.4562 6.47794 13.4562 6.02438C13.4562 5.57081 13.0831 5.20312 12.6229 5.20312C12.1626 5.20312 11.7896 5.57081 11.7896 6.02438C11.7896 6.47794 12.1626 6.84563 12.6229 6.84563Z" fill="#8967AA"/>
<path d="M25.1229 8.51213C25.5831 8.51213 25.9562 8.14444 25.9562 7.69088C25.9562 7.23732 25.5831 6.86963 25.1229 6.86963C24.6626 6.86963 24.2896 7.23732 24.2896 7.69088C24.2896 8.14444 24.6626 8.51213 25.1229 8.51213Z" fill="#F1B31C"/>
<path d="M23.8729 17.2621C24.3331 17.2621 24.7062 16.8944 24.7062 16.4409C24.7062 15.9873 24.3331 15.6196 23.8729 15.6196C23.4126 15.6196 23.0396 15.9873 23.0396 16.4409C23.0396 16.8944 23.4126 17.2621 23.8729 17.2621Z" fill="#D22F27"/>
<path d="M21.1095 19.0165L21.1795 19.0865L12.067 22.9615L2.9541 26.8373L6.8291 17.7248L10.7045 8.6123" stroke="black" stroke-miterlimit="10" stroke-linecap="round" stroke-linejoin="round"/>
<path d="M10.7505 8.65723L15.9422 13.8489L21.1101 19.0164" stroke="black" stroke-miterlimit="10" stroke-linecap="round" stroke-linejoin="round"/>
<path d="M10.7051 8.61182L10.7505 8.65723" stroke="black" stroke-miterlimit="10" stroke-linecap="round" stroke-linejoin="round"/>
<path d="M19.3707 3.06934C19.4686 3.25642 19.5386 3.46225 19.5748 3.68309C19.7628 4.82767 18.9719 5.93892 17.8086 6.16517" stroke="black" stroke-miterlimit="10" stroke-linecap="round" stroke-linejoin="round"/>
<path d="M17.8888 6.15625C17.6723 6.17286 17.4599 6.22406 17.2596 6.30792C16.1892 6.75458 15.6651 8.01333 16.0888 9.12042" stroke="black" stroke-miterlimit="10" stroke-linecap="round" stroke-linejoin="round"/>
<path d="M25.7472 11.1318C25.7046 11.3446 25.6282 11.5491 25.521 11.7377C24.9493 12.7473 23.6364 13.1168 22.5889 12.5627" stroke="black" stroke-miterlimit="10" stroke-linecap="round" stroke-linejoin="round"/>
<path d="M22.6559 12.6065C22.4771 12.4838 22.2797 12.3905 22.0713 12.3303C20.9576 12.0061 19.7593 12.6582 19.3955 13.7857" stroke="black" stroke-miterlimit="10" stroke-linecap="round" stroke-linejoin="round"/>
</svg>
