<svg width="30" height="30" viewBox="0 0 38 38" fill="none" xmlns="http://www.w3.org/2000/svg">
<path d="M10.0278 12.2603H25.8612V31.464H10.0278V12.2603Z" fill="#FCEA2B"/>
<path d="M21.3886 12.2603L17.4165 31.464H25.8609V12.2603H21.3886Z" fill="#F1B31C"/>
<path d="M23.324 8.12801C22.6568 8.12951 22.0112 8.36439 21.499 8.79196C21.0039 7.76913 20.0033 7.06771 18.8464 7.06665C18.4242 7.06665 18.023 7.1606 17.6583 7.32843C17.0672 6.52568 16.1489 6.0074 15.1145 6.00635C13.5596 6.00529 12.2618 7.1701 11.9499 8.7244C11.764 8.67536 11.5727 8.64948 11.3804 8.64735C10.0066 8.64629 8.89143 9.82957 8.89037 11.2894L8.88721 15.5195C8.88668 16.1017 9.33423 16.5777 9.88154 16.5783H10.3792C10.9265 16.5788 11.3746 16.1033 11.3752 15.5217L11.3757 14.6772C11.6805 14.8809 12.0382 14.991 12.4048 14.9939L13.3833 14.9944C14.0183 14.9949 14.5793 14.6703 14.945 14.1753C15.486 14.9897 16.3764 15.5259 17.3807 15.5264C19.0226 15.528 20.368 14.1014 20.369 12.356L26.1329 12.3608C26.2437 12.0299 26.307 11.6747 26.307 11.3031C26.3092 9.5509 24.9733 8.12907 23.324 8.12801Z" fill="white"/>
<path d="M10.4534 13.0933C10.4544 11.6742 11.5696 10.5247 12.9434 10.5257C13.1398 10.5257 13.3287 10.5553 13.5129 10.5996C13.8243 9.09015 15.1226 7.95807 16.678 7.95913C17.7119 7.96018 18.6302 8.46368 19.2208 9.24374C19.5946 9.07589 19.9997 8.98936 20.4094 8.98988C21.5663 8.99093 22.5669 9.67229 23.0615 10.6661C23.5785 10.2489 24.2227 10.0213 24.887 10.0212C25.1668 10.0212 25.4359 10.0639 25.6924 10.1383C25.2866 8.93499 24.1814 8.06943 22.8773 8.06785C22.2131 8.06816 21.5691 8.29575 21.0522 8.71279C20.5572 7.71951 19.5565 7.03763 18.3996 7.0371C17.9774 7.03657 17.5763 7.12788 17.2116 7.29043C16.6205 6.5109 15.7021 6.00688 14.6677 6.00635C13.1128 6.00529 11.8145 7.13738 11.5031 8.64735C11.317 8.5998 11.1258 8.57482 10.9337 8.57293C9.55985 8.57188 8.44465 9.72138 8.4436 11.14L8.44043 15.2514C8.4399 15.8162 8.88746 16.279 9.43476 16.2795H9.93246C10.1225 16.2801 10.2993 16.2215 10.4507 16.1249L10.4534 13.0933Z" fill="white"/>
<path d="M26.125 26.6531H29.2917C30.4528 26.6531 31.4028 25.7031 31.4028 24.542V17.1531C31.4028 15.992 30.4528 15.042 29.2917 15.042H26.125" stroke="black" stroke-width="2" stroke-miterlimit="10" stroke-linecap="round" stroke-linejoin="round"/>
<path d="M20.3687 12.2603H25.8607V31.6666H10.5552V20.9184" stroke="black" stroke-width="2.018" stroke-miterlimit="10" stroke-linecap="round" stroke-linejoin="round"/>
<path d="M10.6885 16.526C11.0859 16.3877 11.3746 15.9887 11.3752 15.5217L11.3757 14.6777C11.6806 14.8813 12.0383 14.9911 12.4048 14.9939L13.3833 14.9944C14.0183 14.9949 14.5793 14.6703 14.945 14.1753C15.486 14.9897 16.3764 15.5259 17.3807 15.5264C19.0226 15.528 20.368 14.1014 20.369 12.356L26.1329 12.3608C26.2437 12.0299 26.307 11.6747 26.307 11.3031C26.3086 9.5509 24.9733 8.12907 23.324 8.12802C22.6568 8.12951 22.0112 8.36439 21.499 8.79196C21.0039 7.76913 20.0033 7.06771 18.8464 7.06718C18.4242 7.06665 18.023 7.1606 17.6583 7.32843C17.0672 6.52568 16.1489 6.0074 15.1145 6.00635C13.5596 6.00529 12.2618 7.1701 11.9499 8.7244C11.764 8.67536 11.5727 8.64948 11.3804 8.64735C10.0066 8.64629 8.89143 9.82957 8.89037 11.2894L8.88721 15.5201C8.88668 16.1017 9.33423 16.5777 9.88154 16.5783H10.3792C10.4869 16.5783 10.5903 16.5603 10.688 16.526" stroke="black" stroke-width="2" stroke-miterlimit="10" stroke-linecap="round" stroke-linejoin="round"/>
</svg>
