<svg width="42" height="24" viewBox="0 0 42 24" fill="none" xmlns="http://www.w3.org/2000/svg">
<path d="M36.3332 8.6665H23.6665V4.6665H36.3332V8.6665Z" fill="#EA5A47"/>
<path d="M36.6668 8C36.6668 11.682 33.6822 14.6667 30.0002 14.6667C26.3182 14.6667 23.3335 11.682 23.3335 8" fill="#EA5A47"/>
<path d="M36.3332 7.99984V4.6665H33.8099C34.0089 6.77817 33.9075 11.7345 29.2139 14.6162C29.4722 14.6465 29.7335 14.6665 29.9999 14.6665C33.6819 14.6665 36.6665 11.6818 36.6665 7.99984H36.3332Z" fill="#D22F27"/>
<path d="M24.6665 22.333H35.3332" stroke="black" stroke-miterlimit="10" stroke-linecap="round" stroke-linejoin="round"/>
<path d="M30 14.6665V22.3332" stroke="black" stroke-miterlimit="10" stroke-linecap="round" stroke-linejoin="round"/>
<path d="M36.6663 8C36.6663 9.08833 36.4057 10.1157 35.943 11.0233C34.841 13.1857 32.593 14.6667 29.9997 14.6667C26.3177 14.6667 23.333 11.682 23.333 8" stroke="black" stroke-miterlimit="10" stroke-linecap="round" stroke-linejoin="round"/>
<path d="M23.333 1.6665V7.99984" stroke="black" stroke-miterlimit="10" stroke-linecap="round" stroke-linejoin="round"/>
<path d="M36.6665 1.6665V7.99984" stroke="black" stroke-miterlimit="10" stroke-linecap="round" stroke-linejoin="round"/>
<path d="M23.1665 4.83301H36.4998" stroke="black" stroke-miterlimit="10"/>
<path d="M18.3332 8.6665H5.6665V4.6665H18.3332V8.6665Z" fill="#EA5A47"/>
<path d="M18.6668 8C18.6668 11.682 15.6822 14.6667 12.0002 14.6667C8.31816 14.6667 5.3335 11.682 5.3335 8" fill="#EA5A47"/>
<path d="M18.3332 7.99984V4.6665H15.8099C16.0089 6.77817 15.9075 11.7345 11.2139 14.6162C11.4722 14.6465 11.7335 14.6665 11.9999 14.6665C15.6819 14.6665 18.6665 11.6818 18.6665 7.99984H18.3332Z" fill="#D22F27"/>
<path d="M6.6665 22.333H17.3332" stroke="black" stroke-miterlimit="10" stroke-linecap="round" stroke-linejoin="round"/>
<path d="M12 14.6665V22.3332" stroke="black" stroke-miterlimit="10" stroke-linecap="round" stroke-linejoin="round"/>
<path d="M18.6663 8C18.6663 9.08833 18.4057 10.1157 17.943 11.0233C16.841 13.1857 14.593 14.6667 11.9997 14.6667C8.31767 14.6667 5.33301 11.682 5.33301 8" stroke="black" stroke-miterlimit="10" stroke-linecap="round" stroke-linejoin="round"/>
<path d="M5.33301 1.6665V7.99984" stroke="black" stroke-miterlimit="10" stroke-linecap="round" stroke-linejoin="round"/>
<path d="M18.6665 1.6665V7.99984" stroke="black" stroke-miterlimit="10" stroke-linecap="round" stroke-linejoin="round"/>
<path d="M5.1665 4.83301H18.4998" stroke="black" stroke-miterlimit="10"/>
</svg>
