<svg width="24" height="24" viewBox="0 0 24 24" fill="none" xmlns="http://www.w3.org/2000/svg">
<path d="M8.83659 4.70996H1.16992" stroke="black" stroke-miterlimit="10" stroke-linecap="round" stroke-linejoin="round"/>
<path d="M19.1346 4.01514L11.481 5.82814" stroke="black" stroke-miterlimit="10" stroke-linecap="round" stroke-linejoin="round"/>
<path d="M1.04346 4.3335C1.32679 9.99016 2.99012 14.3335 5.00012 14.3335C7.01012 14.3335 8.67346 9.99016 8.95679 4.3335H1.04346Z" fill="#FCEA2B"/>
<path d="M3.80146 4.3335H1.04346C1.32679 9.99016 2.99012 14.3335 5.00012 14.3335C5.51846 14.3335 6.01346 14.0425 6.46812 13.5168C5.15479 11.8368 4.15679 8.45683 3.80146 4.3335Z" fill="#F1B31C"/>
<path d="M11.3779 5.45161C12.9626 10.8893 15.5856 14.7296 17.5413 14.2649C19.4969 13.8003 20.1099 9.18961 19.0769 3.62061L11.3779 5.45161Z" fill="#FCEA2B"/>
<path d="M14.0613 4.81348L11.3779 5.45181C12.9626 10.8895 15.5856 14.7298 17.5413 14.2651C18.0456 14.1451 18.4596 13.7475 18.7803 13.1308C17.1139 11.7998 15.3609 8.74248 14.0613 4.81348Z" fill="#F1B31C"/>
<path d="M5 14.6665V22.3332" stroke="black" stroke-miterlimit="10" stroke-linecap="round" stroke-linejoin="round"/>
<path d="M1.3335 22.333H8.66683" stroke="black" stroke-miterlimit="10" stroke-linecap="round" stroke-linejoin="round"/>
<path d="M1.01433 1.6665C1.00567 1.98017 1 2.2965 1 2.6165C1 9.0875 2.791 14.3332 5 14.3332C7.209 14.3332 9 9.0875 9 2.6165C9 2.2965 8.99433 1.98017 8.98567 1.6665" stroke="black" stroke-miterlimit="10" stroke-linecap="round" stroke-linejoin="round"/>
<path d="M17.6182 14.5889L19.3922 22.0475" stroke="black" stroke-miterlimit="10" stroke-linecap="round" stroke-linejoin="round"/>
<path d="M15.8247 22.8959L22.959 21.1992" stroke="black" stroke-miterlimit="10" stroke-linecap="round" stroke-linejoin="round"/>
<path d="M10.7324 2.86386C10.7968 3.1712 10.8644 3.47986 10.9384 3.79153C12.4358 10.0869 15.3918 14.7759 17.5411 14.2649C19.6904 13.7539 20.2188 8.23586 18.7211 1.9402C18.6474 1.62886 18.5688 1.32253 18.4878 1.01953" stroke="black" stroke-miterlimit="10" stroke-linecap="round" stroke-linejoin="round"/>
</svg>
