<svg width="30" height="30" viewBox="0 0 30 30" fill="none" xmlns="http://www.w3.org/2000/svg">
<path d="M22.9168 10.8335H7.0835V5.8335H22.9168V10.8335Z" fill="#EA5A47"/>
<path d="M23.3332 10C23.3332 14.6025 19.6023 18.3333 14.9998 18.3333C10.3973 18.3333 6.6665 14.6025 6.6665 10" fill="#EA5A47"/>
<path d="M22.9167 10.0002V5.8335H19.7626C20.0113 8.47308 19.8847 14.6685 14.0176 18.2706C14.3405 18.3085 14.6672 18.3335 15.0001 18.3335C19.6026 18.3335 23.3334 14.6027 23.3334 10.0002H22.9167Z" fill="#D22F27"/>
<path d="M8.3335 27.917H21.6668" stroke="black" stroke-width="2" stroke-miterlimit="10" stroke-linecap="round" stroke-linejoin="round"/>
<path d="M15 18.3335V27.9168" stroke="black" stroke-width="2" stroke-miterlimit="10" stroke-linecap="round" stroke-linejoin="round"/>
<path d="M23.3337 10C23.3337 11.3604 23.0078 12.6446 22.4295 13.7792C21.052 16.4821 18.242 18.3333 15.0003 18.3333C10.3978 18.3333 6.66699 14.6025 6.66699 10" stroke="black" stroke-width="2" stroke-miterlimit="10" stroke-linecap="round" stroke-linejoin="round"/>
<path d="M6.66699 2.0835V10.0002" stroke="black" stroke-width="2" stroke-miterlimit="10" stroke-linecap="round" stroke-linejoin="round"/>
<path d="M23.3335 2.0835V10.0002" stroke="black" stroke-width="2" stroke-miterlimit="10" stroke-linecap="round" stroke-linejoin="round"/>
<path d="M6.4585 6.04199H23.1252" stroke="black" stroke-width="2" stroke-miterlimit="10"/>
</svg>
