<svg width="30" height="30" viewBox="0 0 38 38" fill="none" xmlns="http://www.w3.org/2000/svg">
<path d="M19.4224 19.5278H30.8224" stroke="black" stroke-width="2" stroke-miterlimit="10" stroke-linecap="round" stroke-linejoin="round"/>
<path d="M6.80859 19L8.70859 35.3611H29.2919L31.1919 19H6.80859Z" fill="#F4AA41"/>
<path d="M23.8028 19L21.9028 35.3611H29.2917L31.1917 19H23.8028Z" fill="#E27022"/>
<path d="M19.583 32.0965L20.685 25.1636L27.7736 26.2909L26.6716 33.2233L19.583 32.0965Z" fill="white"/>
<path d="M9.09473 20.2523L16.3923 17.9448L18.4132 24.3362L11.1156 26.6437L9.09473 20.2523Z" fill="white"/>
<path d="M31.6668 14.7778L29.2918 35.3612H8.7085L6.3335 14.7778" stroke="black" stroke-width="2" stroke-miterlimit="10" stroke-linecap="round" stroke-linejoin="round"/>
<path d="M19.5835 32.0965L20.6855 25.1636L27.7741 26.2909L26.6721 33.2233L19.5835 32.0965Z" stroke="black" stroke-width="1.792" stroke-miterlimit="10" stroke-linecap="round" stroke-linejoin="round"/>
<path d="M9.09473 20.2523L16.3923 17.9448L18.4132 24.3362L11.1156 26.6437L9.09473 20.2523Z" stroke="black" stroke-width="1.80805" stroke-miterlimit="10" stroke-linecap="round" stroke-linejoin="round"/>
</svg>
