<svg width="23" height="22" viewBox="0 0 23 22" fill="none" xmlns="http://www.w3.org/2000/svg">
<path d="M16.5625 0.5C14.605 0.5 12.7262 1.445 11.5 2.93833C10.2738 1.445 8.395 0.5 6.4375 0.5C2.9725 0.5 0.25 3.32333 0.25 6.91667C0.25 11.3267 4.075 14.92 9.86875 20.38L11.5 21.9083L13.1312 20.3683C18.925 14.92 22.75 11.3267 22.75 6.91667C22.75 3.32333 20.0275 0.5 16.5625 0.5ZM11.6125 18.6417L11.5 18.7583L11.3875 18.6417C6.0325 13.6133 2.5 10.2883 2.5 6.91667C2.5 4.58333 4.1875 2.83333 6.4375 2.83333C8.17 2.83333 9.8575 3.98833 10.4537 5.58667H12.5575C13.1425 3.98833 14.83 2.83333 16.5625 2.83333C18.8125 2.83333 20.5 4.58333 20.5 6.91667C20.5 10.2883 16.9675 13.6133 11.6125 18.6417Z" fill="white"/>
</svg>
