<svg width="25" height="30" viewBox="0 0 25 30" fill="none" xmlns="http://www.w3.org/2000/svg">
<path d="M11.1313 23.874V27H8.14553V30H17.103V27H14.1172V23.874C18.8377 23.271 22.8492 19.884 24.1391 15.1845C24.5332 13.7565 24.6048 12.1395 24.3525 10.3755L23.0597 1.287C22.9552 0.549 22.3252 0 21.5817 0H3.6668C2.92333 0 2.29333 0.549 2.18882 1.287L0.897458 10.374C0.645156 12.1395 0.716816 13.7565 1.11094 15.183C2.39932 19.884 6.41077 23.271 11.1313 23.874ZM20.2874 3L21.1383 9H4.1087L4.96115 3H20.2874Z" fill="#323232"/>
</svg>
