<svg width="40" height="40" viewBox="0 0 40 40" fill="none" xmlns="http://www.w3.org/2000/svg">
<rect x="0.3" y="0.3" width="39.4" height="39.4" rx="19.7" fill="white"/>
<g clip-path="url(#clip0)">
<path d="M25.1259 10.4386C23.2371 10.4386 21.4242 11.3504 20.241 12.7914C19.0578 11.3504 17.245 10.4386 15.3561 10.4386C12.0127 10.4386 9.38574 13.1629 9.38574 16.6301C9.38574 20.8854 13.0765 24.3526 18.667 29.6211L20.241 31.0958L21.815 29.6098C27.4055 24.3526 31.0963 20.8854 31.0963 16.6301C31.0963 13.1629 28.4693 10.4386 25.1259 10.4386ZM20.3496 27.9437L20.241 28.0563L20.1325 27.9437C14.9653 23.0918 11.5568 19.8835 11.5568 16.6301C11.5568 14.3787 13.1851 12.6901 15.3561 12.6901C17.0278 12.6901 18.6561 13.8045 19.2315 15.3468H21.2614C21.8259 13.8045 23.4542 12.6901 25.1259 12.6901C27.2969 12.6901 28.9252 14.3787 28.9252 16.6301C28.9252 19.8835 25.5167 23.0918 20.3496 27.9437Z" fill="#2C2C2C"/>
</g>
<rect x="0.3" y="0.3" width="39.4" height="39.4" rx="19.7" stroke="#575757" stroke-width="0.6"/>
<defs>
<clipPath id="clip0">
<path d="M8.4209 9.47369H31.5788V32.6316H8.4209V9.47369Z" fill="white"/>
</clipPath>
</defs>
</svg>
