<svg width="36" height="36" viewBox="0 0 36 36" fill="none" xmlns="http://www.w3.org/2000/svg">
<path d="M33.2229 14.4844H24.2229C24.0682 14.4844 23.9416 14.6109 23.9416 14.7656V16.4531C23.9416 16.6078 24.0682 16.7344 24.2229 16.7344H33.2229C33.3775 16.7344 33.5041 16.6078 33.5041 16.4531V14.7656C33.5041 14.6109 33.3775 14.4844 33.2229 14.4844ZM28.5119 19.2656H24.2229C24.0682 19.2656 23.9416 19.3922 23.9416 19.5469V21.2344C23.9416 21.3891 24.0682 21.5156 24.2229 21.5156H28.5119C28.6666 21.5156 28.7932 21.3891 28.7932 21.2344V19.5469C28.7932 19.3922 28.6666 19.2656 28.5119 19.2656ZM16.7803 11.3379H15.258C15.04 11.3379 14.8643 11.5137 14.8643 11.7316V20.4504C14.8643 20.577 14.924 20.693 15.026 20.7668L20.2607 24.5848C20.4365 24.7113 20.6826 24.6762 20.8092 24.5004L21.7127 23.2664V23.2629C21.8393 23.0871 21.8006 22.841 21.6248 22.7145L17.1705 19.4941V11.7316C17.174 11.5137 16.9947 11.3379 16.7803 11.3379Z" fill="#575757"/>
<path d="M28.2938 23.6918H26.2617C26.0649 23.6918 25.8785 23.7937 25.7731 23.9625C25.3266 24.6691 24.8063 25.323 24.2086 25.9207C23.1785 26.9508 21.9797 27.7594 20.6473 28.3219C19.2656 28.9055 17.7996 29.2008 16.2879 29.2008C14.7727 29.2008 13.3067 28.9055 11.9285 28.3219C10.5961 27.7594 9.39729 26.9508 8.36721 25.9207C7.33713 24.8906 6.52854 23.6918 5.96604 22.3594C5.38245 20.9812 5.08713 19.5152 5.08713 18C5.08713 16.4848 5.38245 15.0223 5.96604 13.6406C6.52854 12.3082 7.33713 11.1094 8.36721 10.0793C9.39729 9.04922 10.5961 8.24062 11.9285 7.67812C13.3067 7.09453 14.7762 6.79922 16.2879 6.79922C17.8031 6.79922 19.2692 7.09453 20.6473 7.67812C21.9797 8.24062 23.1785 9.04922 24.2086 10.0793C24.8063 10.677 25.3266 11.3309 25.7731 12.0375C25.8785 12.2062 26.0649 12.3082 26.2617 12.3082H28.2938C28.5363 12.3082 28.691 12.0551 28.5821 11.8406C26.2899 7.28086 21.6422 4.31719 16.4531 4.25742C8.85588 4.1625 2.54534 10.3816 2.53127 17.9719C2.51721 25.5762 8.6801 31.7461 16.2844 31.7461C21.5403 31.7461 26.2653 28.7719 28.5821 24.1594C28.691 23.9449 28.5328 23.6918 28.2938 23.6918Z" fill="#575757"/>
</svg>
