<svg width="32" height="34" viewBox="0 0 32 34" fill="none" xmlns="http://www.w3.org/2000/svg">
<g clip-path="url(#clip0)">
<path d="M3.03475 19.0563L14.0692 32.2176C15.0348 33.3144 16.1612 33.8628 17.4485 33.8628C18.598 33.8628 19.5865 33.5201 20.4141 32.8346L30.0003 24.8144C30.9198 23.9918 31.4485 22.9636 31.5865 21.7297C31.7244 20.5873 31.3796 19.4676 30.552 18.3709L19.5175 5.20957C18.3221 3.65581 16.7589 2.67328 14.8279 2.26199L5.24165 0.0684393C4.32211 -0.205754 3.44855 -0.000109121 2.62096 0.685375L1.44855 1.7136C0.75889 2.21629 0.414062 3.03887 0.414062 4.18134L0.965787 13.9838C1.19567 15.9488 1.88533 17.6397 3.03475 19.0563ZM4.68992 2.87892L14.4141 5.20957C15.4256 5.43806 16.4371 6.055 17.4485 7.06038L28.483 20.2217C28.8508 20.5873 28.9658 20.9985 28.8279 21.4555C28.8279 21.7297 28.621 22.1182 28.2072 22.6209L18.621 30.641C18.2991 30.9152 17.9083 31.0409 17.4485 31.018C16.9888 30.9952 16.6439 30.8238 16.4141 30.5039L5.37958 17.3426C4.50602 16.2459 4.06923 15.1262 4.06923 13.9838L3.37958 3.90715L4.68992 2.87892ZM8.62096 7.67731C8.62096 8.0886 8.48303 8.43134 8.20717 8.70554C7.9313 8.97973 7.58648 9.11683 7.17268 9.11683C6.75889 9.11683 6.41406 8.97973 6.1382 8.70554C5.86234 8.43134 5.72441 8.0886 5.72441 7.67731C5.72441 7.26602 5.86234 6.92328 6.1382 6.64908C6.41406 6.37489 6.75889 6.23779 7.17268 6.23779C7.58648 6.23779 7.9313 6.37489 8.20717 6.64908C8.48303 6.92328 8.62096 7.26602 8.62096 7.67731ZM9.37958 17.891L22.8968 22.141H23.3796C24.0233 22.141 24.506 21.7983 24.8279 21.1128C24.9658 20.7472 24.9428 20.3816 24.7589 20.016C24.575 19.6504 24.2991 19.3991 23.9313 19.262L10.4141 15.012C10.0462 14.8292 9.66694 14.8292 9.27613 15.012C8.88533 15.1948 8.62096 15.469 8.48303 15.8346C8.20717 16.8856 8.50602 17.5711 9.37958 17.891ZM20.4141 24.4717C20.4141 25.0658 20.2072 25.5799 19.7934 26.014C19.3796 26.4481 18.8508 26.6652 18.2072 26.6652C17.5635 26.6652 17.0348 26.4481 16.621 26.014C16.2072 25.5799 16.0003 25.0658 16.0003 24.4717C16.0003 23.8776 16.2187 23.3635 16.6554 22.9293C17.0922 22.4952 17.6095 22.2781 18.2072 22.2781C18.8049 22.2781 19.3221 22.4952 19.7589 22.9293C20.1957 23.3635 20.4141 23.8776 20.4141 24.4717ZM16.0003 12.8184C16.0003 13.4125 15.7819 13.9266 15.3451 14.3608C14.9083 14.7949 14.3911 15.012 13.7934 15.012C13.1957 15.012 12.6784 14.7949 12.2416 14.3608C11.8049 13.9266 11.5865 13.4125 11.5865 12.8184C11.5865 12.2244 11.7934 11.7102 12.2072 11.2761C12.621 10.842 13.1497 10.6249 13.7934 10.6249C14.4371 10.6249 14.9658 10.842 15.3796 11.2761C15.7934 11.7102 16.0003 12.2244 16.0003 12.8184Z" fill="#575757"/>
</g>
<defs>
<clipPath id="clip0">
<rect width="32" height="34" fill="white"/>
</clipPath>
</defs>
</svg>
