<svg width="32" height="32" viewBox="0 0 32 32" fill="none" xmlns="http://www.w3.org/2000/svg">
<path d="M23.3727 19.4753C23.3727 20.8193 23.7551 21.3553 24.7551 21.3553C26.9839 21.3553 28.4031 18.5153 28.4031 13.7921C28.4031 6.57291 23.1423 3.11691 16.5743 3.11691C9.81752 3.11691 3.67192 7.64811 3.67192 16.2113C3.67192 24.3905 9.04792 28.8449 17.3039 28.8449C20.1071 28.8449 21.9887 28.5377 24.8671 27.5777L25.4847 30.1489C22.6431 31.0721 19.6063 31.3393 17.2655 31.3393C6.43672 31.3393 0.636719 25.3873 0.636719 16.2097C0.636719 6.95531 7.35832 0.657715 16.6127 0.657715C26.2511 0.657715 31.3567 6.41771 31.3567 13.4833C31.3567 19.4737 29.4767 24.0433 23.5631 24.0433C20.8735 24.0433 19.1087 22.9681 18.8783 20.5857C18.1871 23.2353 16.3439 24.0433 13.8463 24.0433C10.5055 24.0433 7.70232 21.4689 7.70232 16.2865C7.70232 11.0641 10.1615 7.83851 14.5775 7.83851C16.9199 7.83851 18.3791 8.76011 19.0287 10.2193L20.1439 8.18411H23.3695V19.4753H23.3727ZM18.6511 14.4065C18.6511 12.2961 17.0751 11.4113 15.7695 11.4113C14.3487 11.4113 12.7759 12.5617 12.7759 15.9425C12.7759 18.6305 13.9663 20.1281 15.7695 20.1281C17.0367 20.1281 18.6511 19.3217 18.6511 17.0945V14.4065Z" fill="white"/>
</svg>
