<svg width="32" height="40" viewBox="0 0 32 40" fill="none" xmlns="http://www.w3.org/2000/svg">
<path d="M13.8418 31.832V36H9.8607V40H21.804V36H17.8229V31.832C24.117 31.028 29.4656 26.512 31.1854 20.246C31.7109 18.342 31.8065 16.186 31.4701 13.834L29.7462 1.716C29.6069 0.732 28.7669 0 27.7756 0H3.88907C2.89778 0 2.05777 0.732 1.91843 1.716L0.19661 13.832C-0.139792 16.186 -0.0442451 18.342 0.481259 20.244C2.1991 26.512 7.54769 31.028 13.8418 31.832ZM26.0498 4L27.1844 12H4.47827L5.61487 4H26.0498Z" fill="white"/>
</svg>
