<svg width="34" height="34" viewBox="0 0 34 34" fill="none" xmlns="http://www.w3.org/2000/svg">
<path d="M18.0625 18.2303C18.6493 18.2303 19.125 17.7546 19.125 17.1678C19.125 16.581 18.6493 16.1053 18.0625 16.1053C17.4757 16.1053 17 16.581 17 17.1678C17 17.7546 17.4757 18.2303 18.0625 18.2303Z" stroke="#575757" stroke-width="2" stroke-linecap="round" stroke-linejoin="round"/>
<path d="M17 23.4869C20.5208 23.4869 23.375 20.6327 23.375 17.1119C23.375 13.5911 20.5208 10.7369 17 10.7369C13.4792 10.7369 10.625 13.5911 10.625 17.1119C10.625 20.6327 13.4792 23.4869 17 23.4869Z" stroke="#575757" stroke-width="2" stroke-linecap="round" stroke-linejoin="round"/>
<path d="M2.125 16.8882C2.125 16.8882 7.4375 6.26318 17 6.26318C26.5625 6.26318 31.875 16.8882 31.875 16.8882C31.875 16.8882 26.5625 27.5132 17 27.5132C7.4375 27.5132 2.125 16.8882 2.125 16.8882Z" stroke="#575757" stroke-width="2" stroke-linecap="round" stroke-linejoin="round"/>
</svg>
